PathFileType	4	(X/Y/Z)	 s11c0303.trc
DataRate	CameraRate	NumFrames	NumMarkers	Units	OrigDataRate	OrigDataStartFrame	OrigNumFrames
200	200	4	48	mm	200	1501	2000
Frame#	Time	racr			lacr			c7			jug			rlel			rdr			llel			ldr			s2			lic			ric			lasi			rasi			rpsi			lpsi			rgt			lgt			rth1			rth2			rth3			rth4			rlfc			rmfc			rsh1			rsh2			rsh3			rsh4			rlmal			rcal			rtoe			rmt5			lth1			lth2			lth4			lth3			llfc			lmfc			llmal			lcal			lmt5			lsh1			lsh2			lsh3			lsh4			ltoe			SBIKE			LBIKE			RBIKE			
		X1	Y1	Z1	X2	Y2	Z2	X3	Y3	Z3	X4	Y4	Z4	X5	Y5	Z5	X6	Y6	Z6	X7	Y7	Z7	X8	Y8	Z8	X9	Y9	Z9	X10	Y10	Z10	X11	Y11	Z11	X12	Y12	Z12	X13	Y13	Z13	X14	Y14	Z14	X15	Y15	Z15	X16	Y16	Z16	X17	Y17	Z17	X18	Y18	Z18	X19	Y19	Z19	X20	Y20	Z20	X21	Y21	Z21	X22	Y22	Z22	X23	Y23	Z23	X24	Y24	Z24	X25	Y25	Z25	X26	Y26	Z26	X27	Y27	Z27	X28	Y28	Z28	X29	Y29	Z29	X30	Y30	Z30	X31	Y31	Z31	X32	Y32	Z32	X33	Y33	Z33	X34	Y34	Z34	X35	Y35	Z35	X36	Y36	Z36	X37	Y37	Z37	X38	Y38	Z38	X39	Y39	Z39	X40	Y40	Z40	X41	Y41	Z41	X42	Y42	Z42	X43	Y43	Z43	X44	Y44	Z44	X45	Y45	Z45	X46	Y46	Z46	X47	Y47	Z47	X48	Y48	Z48	
1501	7.5050	855.472788	1358.621689	-33.581694	855.020826	1419.265356	-399.914480	836.600730	1493.297568	-207.952495	836.239035	1307.878987	-238.969452	664.143723	1146.150271	57.398818	804.783508	932.781741	-37.583379	653.589634	1170.614135	-495.702604	821.102112	921.176576	-430.788956	241.311807	1275.583401	-237.070927	467.514775	1300.490230	-424.612915	462.343604	1220.755068	-36.818248	487.310651	1216.839712	-395.281411	483.479701	1167.793764	-81.168291	298.225610	1336.258170	-167.990270	296.175307	1345.907580	-259.070722	339.211734	1092.736437	-35.021778	379.759672	1179.492277	-452.576829	353.790596	962.994881	-32.727840	383.679828	879.569788	-47.358886	369.585010	795.627696	-67.545509	419.868652	884.659471	-53.372319	384.460061	696.135798	-90.283546	381.400148	675.071028	-213.008500	317.333891	554.040755	-71.695776	307.794055	467.284605	-85.991390	257.520591	396.007222	-86.674862	334.693460	459.890382	-114.384690	203.450772	268.840872	-95.818820	142.630884	281.200237	-146.909846	385.547350	126.626972	-131.435281	308.054395	132.280814	-65.330327	496.312347	1086.611607	-463.545680	570.246437	1044.065145	-452.599801	593.101686	1066.061401	-432.902553	616.629824	966.782107	-455.762112	683.833701	851.491051	-430.979999	682.896865	833.960638	-300.512158	310.071990	645.935469	-413.931578	254.592914	672.590754	-379.501192	292.234177	466.408053	-436.921207	578.564391	791.437292	-451.176841	519.657975	730.777346	-436.638704	435.430265	704.096449	-433.489515	538.134144	705.525190	-414.777504	348.571387	388.741356	-369.042297	-204.423466	950.656192	-260.429847	1.401570	82.861395	-460.697181	-15.256721	81.103924	-62.261549	
1502	7.5100	857.318712	1361.675929	-36.445801	853.445781	1421.136282	-402.436445	836.974070	1494.661415	-211.327455	835.534763	1308.879971	-241.195031	667.466977	1148.259525	56.343176	805.330916	932.717321	-37.427720	653.668034	1170.491628	-497.732305	821.293149	921.333732	-431.094770	241.929695	1275.494290	-234.297373	465.915503	1302.787738	-424.811497	465.111656	1221.436937	-37.058830	485.873129	1218.220494	-395.256167	484.729293	1169.115643	-82.911261	299.902617	1336.141567	-163.265082	295.854089	1346.017894	-256.110100	340.509227	1092.538546	-34.717925	379.548172	1181.825145	-451.710539	352.667010	963.473335	-32.001718	382.300376	880.120286	-45.496520	365.746647	796.068733	-66.693701	417.413600	884.305455	-53.252210	379.148019	696.291727	-90.327377	373.916875	675.968321	-214.367441	310.145571	554.739296	-71.538367	300.547309	468.116971	-85.761235	250.109137	396.856801	-86.838327	327.638103	460.267661	-114.148581	195.820119	269.848282	-95.956302	135.847752	283.586842	-147.067948	375.539393	123.726241	-131.575185	297.922017	130.520931	-65.756818	497.405448	1089.830738	-462.312773	571.930888	1048.223003	-451.646221	594.601457	1070.626223	-432.163304	619.767361	972.233918	-456.437567	689.851234	857.194999	-429.665883	689.115583	839.445244	-298.594322	318.691048	647.096019	-413.295390	262.585086	673.204572	-379.405212	303.026845	467.570512	-436.589577	585.858680	796.745548	-449.742527	527.524317	735.275634	-435.674416	443.576597	707.722417	-432.579829	546.257703	710.020655	-413.984768	360.197466	390.744407	-368.643906	-204.513066	950.652971	-260.446310	1.410971	82.862893	-460.710017	-15.203230	81.105130	-62.188474	
1503	7.5150	858.997663	1364.693177	-39.156619	852.020054	1422.482203	-404.849786	837.415776	1495.360019	-214.510015	834.687992	1309.788670	-243.206923	670.504680	1150.179645	55.108138	806.257023	933.015022	-37.487666	653.665687	1170.417388	-499.999776	821.449603	921.601708	-431.383711	242.260867	1275.546740	-231.508878	464.297946	1305.162332	-425.074146	467.706901	1222.128270	-37.460380	484.124059	1219.674689	-395.115631	486.080302	1170.699105	-84.209137	301.896565	1336.223593	-155.761726	295.609755	1346.407431	-252.662662	342.001221	1092.607278	-34.217717	379.237675	1184.030635	-450.794692	351.995276	964.618256	-30.858635	380.035119	880.691751	-45.121497	362.551276	797.000281	-65.848471	415.598853	884.493017	-53.087076	374.608347	696.838998	-90.146156	367.550404	678.125548	-216.036837	303.919918	555.781443	-71.174936	294.113060	469.158078	-85.477029	243.254030	398.207789	-87.025352	320.570457	461.327634	-113.739948	188.580219	271.607607	-96.119178	129.081109	287.404544	-146.993082	364.915737	121.233895	-132.452228	287.468926	130.288408	-65.805761	498.239276	1092.697077	-461.559606	573.216976	1052.184936	-450.867473	595.773443	1074.948913	-431.713274	622.055052	976.748076	-455.749488	695.475261	862.861545	-428.244996	695.083572	845.309344	-297.103376	327.439257	647.985624	-413.422085	270.381507	673.062713	-379.345043	314.008769	468.086198	-436.162170	592.638706	801.651024	-448.697987	535.380148	739.133269	-434.660531	451.774496	710.458333	-431.647698	554.376601	714.105850	-412.983726	372.222538	392.232889	-368.358769	-204.580644	950.651917	-260.522517	1.400540	82.857262	-460.713728	-15.200036	81.132755	-62.206218	
1504	7.5200	860.576192	1367.487477	-41.906870	850.631359	1423.355584	-407.344899	837.923701	1495.691963	-217.576554	833.781725	1310.272605	-245.196886	673.260815	1152.079597	53.866477	806.479366	933.135285	-37.258991	653.544831	1170.426660	-502.448522	821.132541	922.453033	-432.582618	242.372816	1275.668168	-228.742621	462.637485	1307.353190	-425.284152	470.144013	1222.720625	-38.362990	482.280599	1221.606830	-394.899297	487.366397	1171.548469	-85.145365	300.686944	1337.434600	-157.479245	295.165940	1346.901206	-249.802184	343.494079	1093.117740	-33.364414	378.905581	1186.323279	-450.294042	351.643814	966.038360	-29.665091	378.706632	881.880282	-44.234714	360.111230	798.326309	-65.003098	414.228325	885.407534	-52.402221	371.078502	697.595663	-89.686278	362.848448	680.699976	-217.107771	298.824237	556.948697	-70.691275	288.460584	470.383786	-85.063618	237.116915	399.841797	-86.884473	315.142943	462.471490	-113.127228	181.723229	273.859831	-96.140312	122.896598	291.149702	-147.137945	354.451180	119.262665	-132.820048	277.402883	130.093785	-66.268235	498.874329	1095.264565	-460.943238	573.782924	1055.264951	-449.277625	596.485283	1078.851286	-431.322492	623.969124	980.780767	-454.985973	700.706006	868.597843	-426.693423	700.747510	851.013057	-295.400382	335.868455	647.785830	-413.205139	277.938012	672.314172	-379.224270	324.805609	467.976956	-435.782409	599.478828	805.922333	-447.187070	543.154016	742.369054	-433.508863	460.040507	712.289716	-430.807085	562.464452	717.708514	-411.738362	383.951436	392.919225	-367.787345	-204.586279	950.670371	-260.577350	1.418410	82.881103	-460.725084	-15.206855	81.153378	-62.208782	
